<svg xmlns="http://www.w3.org/2000/svg" xmlns:xlink="http://www.w3.org/1999/xlink" width="500" zoomAndPan="magnify" viewBox="0 0 375 93.749996" height="125" preserveAspectRatio="xMidYMid meet" version="1.0"><defs><g/></defs><g fill="#000000" fill-opacity="1"><g transform="translate(65.615063, 75.743577)"><g><path d="M 63.015625 6.613281 L 54.589844 -5.664062 C 61.65625 -11.28125 65.550781 -20.75 65.550781 -32.664062 C 65.550781 -53.410156 53.59375 -66.457031 34.566406 -66.457031 C 15.492188 -66.457031 3.535156 -53.410156 3.535156 -32.664062 C 3.535156 -11.777344 15.492188 1.085938 34.566406 1.085938 C 38.734375 1.085938 42.582031 0.5 46.070312 -0.769531 L 51.238281 6.613281 Z M 34.566406 -8.789062 C 22.878906 -8.789062 15.492188 -18.074219 15.492188 -32.664062 C 15.492188 -47.25 22.878906 -56.582031 34.566406 -56.582031 C 46.207031 -56.582031 53.636719 -47.25 53.636719 -32.664062 C 53.636719 -25.144531 51.417969 -19.117188 47.566406 -15.222656 L 43.714844 -20.476562 L 32.527344 -20.476562 L 40.046875 -9.605469 C 38.371094 -9.105469 36.511719 -8.789062 34.566406 -8.789062 Z M 34.566406 -8.789062 "/></g></g><g transform="translate(134.700553, 75.743577)"><g><path d="M 33.929688 1.085938 C 49.378906 1.085938 60.070312 -7.382812 62.109375 -21.382812 L 50.648438 -21.382812 C 48.835938 -13.5 42.628906 -8.832031 33.976562 -8.832031 C 22.652344 -8.832031 15.492188 -18.03125 15.492188 -32.707031 C 15.492188 -47.296875 22.695312 -56.535156 33.929688 -56.535156 C 42.402344 -56.535156 49.0625 -51.144531 50.601562 -42.945312 L 62.109375 -42.945312 C 60.660156 -56.988281 49.105469 -66.457031 33.929688 -66.457031 C 15.355469 -66.457031 3.535156 -53.546875 3.535156 -32.707031 C 3.535156 -11.734375 15.265625 1.085938 33.929688 1.085938 Z M 33.929688 1.085938 "/></g></g><g transform="translate(199.890074, 75.743577)"><g><path d="M 17.441406 0 L 17.441406 -21.019531 L 23.875 -28.539062 L 45.121094 0 L 59.34375 0 L 32.210938 -36.378906 L 57.398438 -65.371094 L 43.941406 -65.371094 L 17.847656 -34.792969 L 17.441406 -34.792969 L 17.441406 -65.371094 L 5.753906 -65.371094 L 5.753906 0 Z M 17.441406 0 "/></g></g><g transform="translate(259.643359, 75.743577)"><g><path d="M 47.113281 -9.875 L 17.441406 -9.875 L 17.441406 -65.371094 L 5.753906 -65.371094 L 5.753906 0 L 47.113281 0 Z M 47.113281 -9.875 "/></g></g></g></svg>